<svg width="48" height="48" viewBox="0 0 48 48" fill="none" xmlns="http://www.w3.org/2000/svg">
<path d="M39.8046 5.19944H38.3585V3.6217C38.3585 1.62384 36.7821 0 34.8422 0C32.9009 0 31.3258 1.62384 31.3258 3.6217V5.19812H27.7173V3.6217C27.7173 1.62384 26.1409 0 24.201 0C22.2611 0 20.6846 1.62384 20.6846 3.6217V5.19812H17.0761V3.6217C17.0761 1.62384 15.4997 0 13.5598 0C11.6199 0 10.0434 1.62384 10.0434 3.6217V5.19812H8.19702C5.11134 5.19812 2.59985 7.70961 2.59985 10.7953V42.4028C2.59985 45.4885 5.11134 48 8.19702 48H39.8046C42.8916 48 45.4017 45.4885 45.4017 42.4028V10.7953C45.4017 7.71092 42.8903 5.19944 39.8046 5.19944ZM33.3013 3.6217C33.3013 2.7143 33.9927 1.97547 34.8422 1.97547C35.6929 1.97547 36.383 2.7143 36.383 3.6217V10.0696C36.383 10.977 35.6929 11.7159 34.8422 11.7159C33.9927 11.7159 33.3013 10.977 33.3013 10.0696V3.6217ZM22.6601 3.6217C22.6601 2.7143 23.3515 1.97547 24.201 1.97547C25.0504 1.97547 25.7418 2.7143 25.7418 3.6217V10.0696C25.7418 10.977 25.0504 11.7159 24.201 11.7159C23.3515 11.7159 22.6601 10.977 22.6601 10.0696V3.6217V3.6217ZM12.0176 3.6217C12.0176 2.7143 12.709 1.97547 13.5585 1.97547C14.4079 1.97547 15.0993 2.7143 15.0993 3.6217V10.0696C15.0993 10.977 14.4079 11.7159 13.5585 11.7159C12.709 11.7159 12.0176 10.977 12.0176 10.0696V3.6217ZM42.1093 42.4042C42.1093 43.675 41.0755 44.7089 39.8046 44.7089H8.19702C6.92614 44.7089 5.89231 43.675 5.89231 42.4042V13.4306H42.1093V42.4042Z" fill="#219653"/>
<path d="M14.907 19.2622H8.85547V24.6473H14.907V19.2622Z" fill="#219653"/>
<path d="M22.9855 19.2622H16.9326V24.6473H22.9855V19.2622Z" fill="#219653"/>
<path d="M31.0676 19.2622H25.0161V24.6473H31.0676V19.2622Z" fill="#219653"/>
<path d="M39.1461 19.2622H33.0933V24.6473H39.1461V19.2622Z" fill="#219653"/>
<path d="M14.907 26.4502H8.85547V31.8314H14.907V26.4502Z" fill="#219653"/>
<path d="M22.9855 26.4502H16.9326V31.8314H22.9855V26.4502Z" fill="#219653"/>
<path d="M31.0676 26.4502H25.0161V31.8314H31.0676V26.4502Z" fill="#219653"/>
<path d="M39.1461 26.4502H33.0933V31.8314H39.1461V26.4502Z" fill="#219653"/>
<path d="M14.907 33.6357H8.85547V39.0169H14.907V33.6357Z" fill="#219653"/>
<path d="M22.9855 33.6357H16.9326V39.0169H22.9855V33.6357Z" fill="#219653"/>
<path d="M31.0676 33.6357H25.0161V39.0169H31.0676V33.6357Z" fill="#219653"/>
<path d="M39.1461 33.6357H33.0933V39.0169H39.1461V33.6357Z" fill="#219653"/>
</svg>
