<svg width="47" height="48" viewBox="0 0 47 48" fill="none" xmlns="http://www.w3.org/2000/svg">
<path fill-rule="evenodd" clip-rule="evenodd" d="M0 5.21428C0 2.36466 2.2698 0 5.13636 0H37.8636C40.7302 0 43 2.36466 43 5.21428V15.5C43 16.3284 42.3284 17 41.5 17C40.6716 17 40 16.3284 40 15.5V5.21428C40 3.96122 39.0136 3 37.8636 3H5.13636C3.9863 3 3 3.96122 3 5.21428V23.7858C3 25.0388 3.9863 26 5.13636 26H19.5C20.3284 26 21 26.6716 21 27.5C21 28.3284 20.3284 29 19.5 29H5.13636C2.2698 29 0 26.6354 0 23.7858V5.21428Z" fill="#219653"/>
<path fill-rule="evenodd" clip-rule="evenodd" d="M0 7.5C0 6.67158 0.671572 6 1.5 6H41.5C42.3284 6 43 6.67158 43 7.5C43 8.32842 42.3284 9 41.5 9H1.5C0.671572 9 0 8.32842 0 7.5Z" fill="#219653"/>
<path fill-rule="evenodd" clip-rule="evenodd" d="M4 17.5C4 16.6716 4.67158 16 5.5 16H9.5C10.3284 16 11 16.6716 11 17.5C11 18.3284 10.3284 19 9.5 19H5.5C4.67158 19 4 18.3284 4 17.5Z" fill="#219653"/>
<path fill-rule="evenodd" clip-rule="evenodd" d="M4 22.5C4 21.6716 4.67158 21 5.5 21H13.5C14.3284 21 15 21.6716 15 22.5C15 23.3284 14.3284 24 13.5 24H5.5C4.67158 24 4 23.3284 4 22.5Z" fill="#219653"/>
<path fill-rule="evenodd" clip-rule="evenodd" d="M24 29.5C24 23.1488 29.1488 18 35.5 18C41.8512 18 47 23.1488 47 29.5C47 35.8512 41.8512 41 35.5 41C29.1488 41 24 35.8512 24 29.5ZM40.5606 29.5606C41.1464 28.9748 41.1464 28.0252 40.5606 27.4394C39.9748 26.8536 39.0252 26.8536 38.4394 27.4394L35.5 30.3786L33.5606 28.4394C32.9748 27.8536 32.0252 27.8536 31.4394 28.4394C30.8536 29.0252 30.8536 29.9748 31.4394 30.5606L34.4394 33.5606C35.0252 34.1464 35.9748 34.1464 36.5606 33.5606L40.5606 29.5606Z" fill="#219653"/>
</svg>
