<svg width="30" height="30" viewBox="0 0 30 30" fill="none" xmlns="http://www.w3.org/2000/svg">
<rect width="30" height="30" fill="#219653"/>
<g clip-path="url(#clip0)">
<path d="M19.7196 20.8048L14.5444 18.0647C14.4096 17.9931 14.2451 18.003 14.1176 18.0893L10.1604 20.8295C10.0124 20.9323 9.94822 21.1189 10.0025 21.2908C10.0551 21.4611 10.2147 21.5787 10.3939 21.5787H19.5263C19.7147 21.5787 19.88 21.4504 19.9252 21.2662C19.9712 21.0828 19.8857 20.8928 19.7196 20.8048Z" fill="white"/>
<path d="M21.4525 20.0236L20.2354 14.5441C20.2058 14.4101 20.1112 14.3007 19.9838 14.2505C19.8555 14.2004 19.7116 14.2177 19.5997 14.295L15.6416 17.0351C15.5232 17.1173 15.4566 17.2547 15.4657 17.3969C15.4739 17.5408 15.5569 17.6691 15.6836 17.7357L20.8579 20.4759C20.9188 20.508 20.9846 20.5244 21.0504 20.5244C21.1384 20.5244 21.2264 20.4964 21.2995 20.4397C21.427 20.3427 21.487 20.1807 21.4525 20.0236Z" fill="white"/>
<path d="M18.5883 13.6436C18.534 13.4718 18.3753 13.355 18.1952 13.355H14.4419C13.7594 14.591 12.7495 15.7727 12.3342 16.2349C12.1007 16.4948 11.766 16.6445 11.4164 16.6445C11.0669 16.6445 10.7322 16.4948 10.4987 16.2349C10.3383 16.0565 10.09 15.7711 9.80543 15.4175L8.81036 19.8961C8.77418 20.0614 8.84243 20.2316 8.98224 20.3262C9.05132 20.3731 9.13191 20.3961 9.21168 20.3961C9.29391 20.3961 9.37533 20.3723 9.44605 20.3229L18.4288 14.1033C18.5776 14.0022 18.641 13.8155 18.5883 13.6436Z" fill="white"/>
<path d="M11.4164 8.4209C9.8292 8.4209 8.53809 9.71202 8.53809 11.2992C8.53809 12.7762 10.8473 15.3921 11.1105 15.6857C11.1886 15.772 11.2996 15.8222 11.4164 15.8222C11.5332 15.8222 11.6442 15.772 11.7223 15.6857C11.9855 15.3921 14.2947 12.7762 14.2947 11.2992C14.2947 9.71202 13.0035 8.4209 11.4164 8.4209ZM11.4164 12.5327C10.7355 12.5327 10.1828 11.9801 10.1828 11.2992C10.1828 10.6183 10.7355 10.0656 11.4164 10.0656C12.0973 10.0656 12.6499 10.6183 12.6499 11.2992C12.6499 11.9801 12.0973 12.5327 11.4164 12.5327Z" fill="white"/>
</g>
<defs>
<clipPath id="clip0">
<rect width="13.1579" height="13.1579" fill="white" transform="translate(8.4209 8.4209)"/>
</clipPath>
</defs>
</svg>
