<svg width="30" height="30" viewBox="0 0 30 30" fill="none" xmlns="http://www.w3.org/2000/svg">
<rect width="30" height="30" fill="#219653"/>
<g clip-path="url(#clip0)">
<path d="M21.5788 12.7641C21.5788 11.9055 21.5788 11.3049 21.5788 11.2479C21.5788 10.6102 21.06 10.0914 20.4223 10.0914H20.2681V11.5049C20.2681 11.7178 20.0955 11.8904 19.8827 11.8904C19.6698 11.8904 19.4972 11.7178 19.4972 11.5049C19.4972 11.0721 19.4972 9.87988 19.4972 9.44896C19.4972 9.23607 19.3246 9.06348 19.1117 9.06348C18.8988 9.06348 18.7262 9.23607 18.7262 9.44896V10.0914H16.1563V11.5049C16.1563 11.7178 15.9837 11.8904 15.7708 11.8904C15.5579 11.8904 15.3853 11.7178 15.3853 11.5049C15.3853 11.0721 15.3853 9.87988 15.3853 9.44896C15.3853 9.23607 15.2127 9.06348 14.9998 9.06348C14.787 9.06348 14.6144 9.23607 14.6144 9.44896V10.0914H12.0445V11.5049C12.0445 11.7178 11.8719 11.8904 11.659 11.8904C11.4461 11.8904 11.2735 11.7178 11.2735 11.5049C11.2735 11.0721 11.2735 9.87988 11.2735 9.44896C11.2735 9.23607 11.1009 9.06348 10.888 9.06348C10.6751 9.06348 10.5025 9.23607 10.5025 9.44896V10.0914H9.57735C8.93968 10.0914 8.4209 10.6102 8.4209 11.2479V12.7641H21.5788Z" fill="white"/>
<path d="M8.4209 13.5352V19.78C8.4209 20.4177 8.93968 20.9365 9.57735 20.9365H20.4223C21.06 20.9365 21.5788 20.4177 21.5788 19.78C21.5788 19.6149 21.5788 16.0071 21.5788 13.5352C21.3389 13.5352 8.55361 13.5352 8.4209 13.5352ZM12.1216 18.8806H11.2992C11.0863 18.8806 10.9137 18.708 10.9137 18.4951C10.9137 18.2822 11.0863 18.1096 11.2992 18.1096H12.1216C12.3344 18.1096 12.507 18.2822 12.507 18.4951C12.507 18.708 12.3344 18.8806 12.1216 18.8806ZM12.1216 17.2358H11.2992C11.0863 17.2358 10.9137 17.0632 10.9137 16.8503C10.9137 16.6374 11.0863 16.4648 11.2992 16.4648H12.1216C12.3344 16.4648 12.507 16.6374 12.507 16.8503C12.507 17.0632 12.3344 17.2358 12.1216 17.2358ZM12.1216 15.5911H11.2992C11.0863 15.5911 10.9137 15.4185 10.9137 15.2056C10.9137 14.9927 11.0863 14.8201 11.2992 14.8201H12.1216C12.3344 14.8201 12.507 14.9927 12.507 15.2056C12.507 15.4185 12.3344 15.5911 12.1216 15.5911ZM15.411 18.8806H14.5887C14.3758 18.8806 14.2032 18.708 14.2032 18.4951C14.2032 18.2822 14.3758 18.1096 14.5887 18.1096H15.411C15.6239 18.1096 15.7965 18.2822 15.7965 18.4951C15.7965 18.708 15.6239 18.8806 15.411 18.8806ZM15.411 17.2358H14.5887C14.3758 17.2358 14.2032 17.0632 14.2032 16.8503C14.2032 16.6374 14.3758 16.4648 14.5887 16.4648H15.411C15.6239 16.4648 15.7965 16.6374 15.7965 16.8503C15.7965 17.0632 15.6239 17.2358 15.411 17.2358ZM15.411 15.5911H14.5887C14.3758 15.5911 14.2032 15.4185 14.2032 15.2056C14.2032 14.9927 14.3758 14.8201 14.5887 14.8201H15.411C15.6239 14.8201 15.7965 14.9927 15.7965 15.2056C15.7965 15.4185 15.6239 15.5911 15.411 15.5911ZM18.7005 18.8806H17.8781C17.6652 18.8806 17.4927 18.708 17.4927 18.4951C17.4927 18.2822 17.6652 18.1096 17.8781 18.1096H18.7005C18.9134 18.1096 19.086 18.2822 19.086 18.4951C19.086 18.708 18.9134 18.8806 18.7005 18.8806ZM18.7005 17.2358H17.8781C17.6652 17.2358 17.4927 17.0632 17.4927 16.8503C17.4927 16.6374 17.6652 16.4648 17.8781 16.4648H18.7005C18.9134 16.4648 19.086 16.6374 19.086 16.8503C19.086 17.0632 18.9134 17.2358 18.7005 17.2358ZM18.7005 15.5911H17.8781C17.6652 15.5911 17.4927 15.4185 17.4927 15.2056C17.4927 14.9927 17.6652 14.8201 17.8781 14.8201H18.7005C18.9134 14.8201 19.086 14.9927 19.086 15.2056C19.086 15.4185 18.9134 15.5911 18.7005 15.5911Z" fill="white"/>
</g>
<defs>
<clipPath id="clip0">
<rect width="13.1579" height="13.1579" fill="white" transform="translate(8.4209 8.4209)"/>
</clipPath>
</defs>
</svg>
