<svg width="30" height="30" viewBox="0 0 30 30" fill="none" xmlns="http://www.w3.org/2000/svg">
<rect width="30" height="30" fill="#219653"/>
<g clip-path="url(#clip0)">
<path d="M17.1436 15.0672L21.5794 17.8715V12.1445L17.1436 15.0672Z" fill="white"/>
<path d="M8.4209 12.1445V17.8715L12.8568 15.0672L8.4209 12.1445Z" fill="white"/>
<path d="M20.7562 10.4771H9.24301C8.83265 10.4771 8.50699 10.783 8.44531 11.1769L14.9996 15.4951L21.5539 11.1769C21.4922 10.783 21.1665 10.4771 20.7562 10.4771Z" fill="white"/>
<path d="M16.3897 15.5643L15.226 16.3307C15.157 16.376 15.0788 16.3982 14.9999 16.3982C14.9209 16.3982 14.8428 16.376 14.7737 16.3307L13.6101 15.5635L8.44727 18.8291C8.51059 19.2197 8.8346 19.5232 9.24332 19.5232H20.7565C21.1652 19.5232 21.4892 19.2197 21.5525 18.8291L16.3897 15.5643Z" fill="white"/>
</g>
<defs>
<clipPath id="clip0">
<rect width="13.1579" height="13.1579" fill="white" transform="translate(8.4209 8.4209)"/>
</clipPath>
</defs>
</svg>
