<svg width="30" height="30" viewBox="0 0 30 30" fill="none" xmlns="http://www.w3.org/2000/svg">
<rect width="30" height="30" fill="#219653"/>
<g clip-path="url(#clip0)">
<path d="M14.3584 16.1675C13.3537 15.1628 13.1269 14.158 13.0757 13.7555C13.0614 13.6442 13.0997 13.5326 13.1793 13.4535L13.9924 12.6408C14.112 12.5213 14.1332 12.335 14.0436 12.1916L12.749 10.1814C12.6498 10.0227 12.4462 9.9654 12.2788 10.0491L10.2005 11.0279C10.0652 11.0946 9.98554 11.2384 10.0009 11.3885C10.1098 12.423 10.5608 14.966 13.0599 17.4653C15.559 19.9646 18.1016 20.4154 19.1367 20.5243C19.2868 20.5397 19.4306 20.46 19.4973 20.3246L20.476 18.2464C20.5595 18.0794 20.5026 17.8763 20.3445 17.7769L18.3343 16.4827C18.191 16.393 18.0047 16.4141 17.8851 16.5335L17.0724 17.3466C16.9933 17.4262 16.8817 17.4645 16.7704 17.4502C16.3679 17.3991 15.3632 17.1722 14.3584 16.1675V16.1675Z" fill="white"/>
<path d="M18.3477 15.6262C18.1472 15.6262 17.9847 15.4637 17.9847 15.2632C17.983 13.7604 16.7652 12.5426 15.2624 12.5409C15.0619 12.5409 14.8994 12.3784 14.8994 12.1779C14.8994 11.9775 15.0619 11.8149 15.2624 11.8149C17.166 11.817 18.7086 13.3597 18.7107 15.2632C18.7107 15.4637 18.5482 15.6262 18.3477 15.6262Z" fill="white"/>
<path d="M20.1626 15.6261C19.9621 15.6261 19.7996 15.4636 19.7996 15.2632C19.7968 12.7585 17.7671 10.7288 15.2624 10.726C15.0619 10.726 14.8994 10.5634 14.8994 10.363C14.8994 10.1625 15.0619 10 15.2624 10C18.1678 10.0032 20.5223 12.3577 20.5255 15.2632C20.5255 15.3594 20.4873 15.4517 20.4192 15.5198C20.3512 15.5879 20.2588 15.6261 20.1626 15.6261Z" fill="white"/>
</g>
<defs>
<clipPath id="clip0">
<rect width="10.5263" height="10.5263" fill="white" transform="translate(10 10)"/>
</clipPath>
</defs>
</svg>
