<svg width="48" height="48" viewBox="0 0 48 48" fill="none" xmlns="http://www.w3.org/2000/svg">
<path d="M43.9809 11.9135L44.7268 11.1675C45.3623 10.532 45.3623 9.50174 44.7268 8.86642C44.0912 8.23111 43.0612 8.23111 42.4257 8.86642L41.6613 9.63103L40.193 3.75806C39.6659 1.65075 37.5517 0 35.3797 0H12.6201C10.4482 0 8.3339 1.65075 7.80687 3.75822L6.33875 9.63103L5.5743 8.86642C4.93867 8.23111 3.90869 8.23111 3.27321 8.86642C2.63774 9.5019 2.63774 10.5322 3.27321 11.1675L4.01907 11.9135C1.64137 13.0791 0 15.524 0 18.3457V24.0609C0 26.3675 1.09754 28.4213 2.79644 29.7316V32.5831C2.79644 34.9159 4.69414 36.8136 7.02707 36.8136H10.2103C12.543 36.8136 14.4407 34.9159 14.4407 32.5831V31.2204H33.5591V32.5831C33.5591 34.9159 35.4568 36.8136 37.7896 36.8136H40.9728C43.3055 36.8136 45.2034 34.9159 45.2034 32.5831V29.7319C46.9023 28.4217 48 26.3678 48 24.0609V18.3457C48 15.524 46.3586 13.0791 43.9809 11.9135ZM9.43014 10.6823L10.9639 4.54756C11.13 3.88267 11.935 3.25414 12.6201 3.25414H35.3796C36.0646 3.25414 36.8697 3.88267 37.0358 4.54756L38.5697 10.6825C38.612 10.8527 38.6036 10.9975 38.5469 11.0702C38.4899 11.1429 38.3514 11.1864 38.1762 11.1864H9.82352C9.64832 11.1864 9.50982 11.1429 9.45277 11.0702C9.3962 10.9975 9.3878 10.8527 9.43014 10.6823ZM3.2543 18.3457C3.2543 16.1926 5.00622 14.4407 7.15927 14.4407H40.8407C42.9938 14.4407 44.7457 16.1926 44.7457 18.3457V24.0609C44.7457 26.2141 42.9938 27.9661 40.8407 27.9661H7.15927C5.00622 27.9661 3.2543 26.2141 3.2543 24.0609V18.3457V18.3457ZM11.1864 32.5831C11.1864 33.1121 10.7392 33.5593 10.2103 33.5593H7.02691C6.49778 33.5593 6.05059 33.1121 6.05059 32.5831V31.1342C6.41212 31.1906 6.78206 31.2204 7.15911 31.2204H11.1863V32.5831H11.1864ZM41.9491 32.5831C41.9491 33.1121 41.5019 33.5593 40.9728 33.5593H37.7896C37.2606 33.5593 36.8134 33.1121 36.8134 32.5831V31.2204H40.8409C41.2178 31.2204 41.5877 31.1905 41.9493 31.1342V32.5831H41.9491Z" fill="#219653"/>
<path d="M18.4065 22.8303H29.5934C30.492 22.8303 31.2204 22.1017 31.2204 21.2032C31.2204 20.3046 30.4919 19.5762 29.5934 19.5762H18.4065C17.5079 19.5762 16.7795 20.3047 16.7795 21.2032C16.7794 22.1017 17.5079 22.8303 18.4065 22.8303Z" fill="#219653"/>
<path d="M10.0169 25.6266C12.4561 25.6266 14.4406 23.6422 14.4406 21.2029C14.4406 18.7636 12.4561 16.7793 10.0169 16.7793C7.57759 16.7793 5.59326 18.7636 5.59326 21.2029C5.5931 23.642 7.57759 25.6266 10.0169 25.6266ZM10.0169 20.0333C10.6617 20.0333 11.1863 20.558 11.1863 21.2027C11.1863 21.8476 10.6617 22.3722 10.0169 22.3722C9.37217 22.3722 8.84741 21.8476 8.84741 21.2027C8.84724 20.558 9.37201 20.0333 10.0169 20.0333Z" fill="#219653"/>
<path d="M37.9831 25.6266C40.4224 25.6266 42.4067 23.6422 42.4067 21.2029C42.4067 18.7636 40.4224 16.7793 37.9831 16.7793C35.5438 16.7793 33.5593 18.7636 33.5593 21.2029C33.5592 23.642 35.5438 25.6266 37.9831 25.6266ZM37.9831 20.0333C38.6278 20.0333 39.1525 20.558 39.1525 21.2027C39.1525 21.8476 38.6278 22.3722 37.9831 22.3722C37.3382 22.3722 36.8136 21.8476 36.8136 21.2027C36.8135 20.558 37.3381 20.0333 37.9831 20.0333Z" fill="#219653"/>
</svg>
