<svg width="71" height="49" viewBox="0 0 71 49" fill="none" xmlns="http://www.w3.org/2000/svg">
<path d="M0 5C0 2.23858 2.23858 0 5 0H56.2515C58.1852 0 59.9455 1.11496 60.7719 2.86314L69.9899 22.3631C70.6294 23.7159 70.6294 25.2841 69.9899 26.6369L60.7719 46.1369C59.9455 47.885 58.1852 49 56.2515 49H5C2.23858 49 0 46.7614 0 44V5Z" fill="#219653"/>
<path d="M17.041 14.7344C17.041 12.8151 17.6641 11.2611 18.9102 10.0723C20.1562 8.86914 21.7891 8.26758 23.8086 8.26758C25.8568 8.26758 27.5039 8.86198 28.75 10.0508C29.9961 11.2253 30.6191 12.8223 30.6191 14.8418V16.3887C30.6191 18.3223 29.9961 19.8763 28.75 21.0508C27.5039 22.2253 25.8711 22.8125 23.8516 22.8125C21.8177 22.8125 20.1706 22.2253 18.9102 21.0508C17.6641 19.862 17.041 18.265 17.041 16.2598V14.7344ZM21.166 16.3887C21.166 17.248 21.4095 17.9427 21.8965 18.4727C22.3978 18.9883 23.0495 19.2461 23.8516 19.2461C24.6536 19.2461 25.291 18.9811 25.7637 18.4512C26.2363 17.9212 26.4727 17.2122 26.4727 16.3242V14.7344C26.4727 13.875 26.2363 13.1803 25.7637 12.6504C25.291 12.1204 24.6393 11.8555 23.8086 11.8555C23.0208 11.8555 22.3835 12.1204 21.8965 12.6504C21.4095 13.166 21.166 13.8893 21.166 14.8203V16.3887ZM31.9941 32.3301C31.9941 30.3965 32.6243 28.8424 33.8848 27.668C35.1452 26.4792 36.778 25.8848 38.7832 25.8848C40.8171 25.8848 42.457 26.472 43.7031 27.6465C44.9635 28.8066 45.5938 30.4108 45.5938 32.459V34.0059C45.5938 35.9251 44.9779 37.4792 43.7461 38.668C42.5143 39.8424 40.8743 40.4297 38.8262 40.4297C36.7637 40.4297 35.1094 39.8353 33.8633 38.6465C32.6172 37.4577 31.9941 35.8822 31.9941 33.9199V32.3301ZM36.1191 34.0059C36.1191 34.7936 36.377 35.4668 36.8926 36.0254C37.4082 36.584 38.0527 36.8633 38.8262 36.8633C40.5736 36.8633 41.4473 35.8965 41.4473 33.9629V32.3301C41.4473 31.4707 41.2038 30.7832 40.7168 30.2676C40.2298 29.7376 39.5853 29.4727 38.7832 29.4727C37.9811 29.4727 37.3366 29.7376 36.8496 30.2676C36.3626 30.7832 36.1191 31.4922 36.1191 32.3945V34.0059ZM25.0762 37.6582L22.0469 36.0254L37.3223 11.5762L40.3516 13.209L25.0762 37.6582Z" fill="#FFF5F5"/>
</svg>
