<svg width="48" height="48" viewBox="0 0 48 48" fill="none" xmlns="http://www.w3.org/2000/svg">
<g clip-path="url(#clip0)">
<path d="M38.2714 13.9635C37.7757 6.33901 31.5529 0.366211 24.1046 0.366211C16.7184 0.366211 10.4963 6.33329 9.93835 13.961C9.71616 17.2948 10.7687 20.7426 12.9141 23.6843L22.8486 36.9653C23.1446 37.3611 23.61 37.5944 24.1046 37.5944C24.5992 37.5944 25.064 37.3612 25.3606 36.9653L35.2936 23.6864C37.4442 20.8195 38.5015 17.3654 38.2714 13.9635ZM32.7827 21.8051L24.1046 33.4066L15.4374 21.8203C13.7365 19.4878 12.8947 16.7704 13.0677 14.1795C13.4515 8.93138 17.6853 3.50289 24.1046 3.50289C30.5783 3.50289 34.8 8.92454 35.1409 14.1712C35.3208 16.8268 34.4836 19.538 32.7827 21.8051Z" fill="#219653"/>
<path d="M24.0002 7.68555C20.7997 7.68555 18.1963 10.289 18.1963 13.4895C18.1963 16.69 20.7997 19.2935 24.0002 19.2935C27.2002 19.2935 29.8042 16.69 29.8042 13.4895C29.8041 10.2889 27.2008 7.68555 24.0002 7.68555ZM24.0002 16.1561C22.53 16.1561 21.3336 14.9598 21.3336 13.4895C21.3336 11.9941 22.5048 10.8229 24.0002 10.8229C25.4956 10.8229 26.6669 11.9941 26.6669 13.4895C26.6669 14.9598 25.4705 16.1561 24.0002 16.1561Z" fill="#219653"/>
<path d="M47.9286 45.5984L42.2814 27.5065C42.0775 26.8518 41.471 26.4053 40.7844 26.4053H30.2747V29.5425H39.631L44.2988 44.4967H3.75505L8.81172 29.5425H18.2486V26.4053H7.68654C7.0136 26.4053 6.41595 26.834 6.20051 27.4709L0.0828646 45.5629C-0.0792289 46.0418 -0.000760271 46.5694 0.294083 46.9799C0.588926 47.3904 1.06321 47.634 1.56889 47.634H46.4316C46.9304 47.634 47.3999 47.3971 47.6953 46.9951C47.9907 46.5929 48.0775 46.0743 47.9286 45.5984Z" fill="#219653"/>
<path d="M17.9768 35.3142C17.6808 35.001 17.2683 34.8232 16.8369 34.8232H5.12451V37.9605H15.1773L14.748 45.5579L17.88 45.7346L18.4029 36.4797C18.4274 36.0494 18.2732 35.628 17.9768 35.3142Z" fill="#219653"/>
<path d="M42.4577 32.7842H33.3596C32.4932 32.7842 31.791 33.4864 31.791 34.3528C31.791 35.2192 32.4932 35.9214 33.3596 35.9214H42.4577C43.3241 35.9214 44.0263 35.2192 44.0263 34.3528C44.0263 33.4864 43.3241 32.7842 42.4577 32.7842Z" fill="#219653"/>
<path d="M24.2615 38.4312C23.3951 38.4312 22.6929 39.1333 22.6929 39.9998V46.0651H25.8301V41.5684H44.7059V38.4312H24.2615V38.4312Z" fill="#219653"/>
</g>
<defs>
<clipPath id="clip0">
<rect width="48" height="48" fill="white"/>
</clipPath>
</defs>
</svg>
