<svg width="53" height="53" viewBox="0 0 53 53" fill="none" xmlns="http://www.w3.org/2000/svg">
<g clip-path="url(#clip0)">
<path d="M38.138 11.0616L33.4497 3.02985C33.2267 2.64781 32.8601 2.36956 32.4317 2.25914C32.0055 2.15314 31.5483 2.21498 31.1685 2.44243L16.8364 11.0417L38.138 11.0616Z" fill="#219653"/>
<path d="M6.625 13.25C5.41042 13.25 4.41667 12.2562 4.41667 11.0416C4.41667 9.82704 5.41042 8.83329 6.625 8.83329H14.0671L21.4429 4.41663H6.625C3.35667 4.41663 0.640417 6.80163 0.110417 9.93746C0.06625 10.1141 0 10.2908 0 10.4895V44.1666C0 47.8104 2.98125 50.7916 6.625 50.7916H44.1667C46.5958 50.7916 48.5833 48.8041 48.5833 46.375V41.9583H43.0625C37.5858 41.9583 33.125 37.4975 33.125 32.0208C33.125 26.5441 37.5858 22.0833 43.0625 22.0833H48.5833V17.6666C48.5833 15.2375 46.5958 13.25 44.1667 13.25H6.625ZM41.9583 8.83329C41.9583 6.60288 40.3021 4.74788 38.1379 4.46079L41.9583 11.0416V8.83329Z" fill="#219653"/>
<path d="M51.3437 25.3959H43.0625C39.4099 25.3959 36.4375 28.3683 36.4375 32.0209C36.4375 35.6735 39.4099 38.6459 43.0625 38.6459H51.3437C52.258 38.6459 53 37.9039 53 36.9896V27.0521C53 26.1379 52.258 25.3959 51.3437 25.3959ZM43.0625 34.2292C41.8435 34.2292 40.8542 33.2399 40.8542 32.0209C40.8542 30.8019 41.8435 29.8125 43.0625 29.8125C44.2815 29.8125 45.2708 30.8019 45.2708 32.0209C45.2708 33.2399 44.2815 34.2292 43.0625 34.2292Z" fill="#219653"/>
</g>
<defs>
<clipPath id="clip0">
<rect width="53" height="53" fill="white"/>
</clipPath>
</defs>
</svg>
