<svg width="82" height="30" viewBox="0 0 82 30" fill="none" xmlns="http://www.w3.org/2000/svg">
<path d="M79.5977 7.35821H77.0967C76.4061 5.63493 75.4698 4.40045 74.6202 3.55082C72.4694 1.39976 70.0408 0.806061 69.3478 0.675533C67.2405 0.278186 63.8623 0.174082 60.4622 0.198906C60.4521 0.198746 60.4423 0.197306 60.4322 0.197306C60.4321 0.197306 60.4319 0.197306 60.4318 0.197306L22.2627 0.204994C22.2577 0.204994 22.2531 0.205635 22.2483 0.205795C18.6146 0.160791 14.9062 0.250479 12.6522 0.675533C11.9592 0.806061 9.53058 1.39976 7.37984 3.55082C6.53021 4.40061 5.59378 5.63493 4.90334 7.35821H2.40234C1.07561 7.35821 0 8.43382 0 9.76056C0 11.0873 1.07561 12.1629 2.40234 12.1629H3.90237C3.88683 12.4722 3.87834 12.7896 3.87834 13.1161C3.87834 23.4784 10.8426 28.9729 17.3134 29.6928C17.9879 29.7679 18.6625 29.8049 19.3345 29.8049C23.7254 29.8048 27.9974 28.2229 31.2969 25.3255C33.9004 23.0396 36.9283 19.0037 38.1353 12.1627H43.8647C45.0717 19.0035 48.0996 23.0396 50.7031 25.3255C54.0029 28.2231 58.2743 29.8049 62.6655 29.8049C63.3372 29.8048 64.0124 29.7679 64.6866 29.6928C71.1573 28.9729 78.1217 23.4784 78.1217 13.1161C78.1217 12.7896 78.1132 12.4722 78.0976 12.1629H79.5977C80.9244 12.1629 82 11.0873 82 9.76056C82 8.43382 80.9244 7.35821 79.5977 7.35821ZM43.3607 7.35821H38.6393C38.6503 7.0765 38.6598 6.79238 38.6652 6.50314C38.6749 5.99208 38.615 5.49015 38.4923 5.00648L43.5082 5.00552C43.3854 5.48951 43.3252 5.99176 43.3349 6.5033C43.3402 6.79238 43.3497 7.0765 43.3607 7.35821Z" fill="#219653"/>
</svg>
