<svg width="49" height="49" viewBox="0 0 49 49" fill="none" xmlns="http://www.w3.org/2000/svg">
<g clip-path="url(#clip0)">
<path d="M48.7189 17.8916C48.4793 17.5992 48.1217 17.4286 47.7466 17.4286H42.9777C41.8008 14.3245 40.2677 11.2832 38.525 10.1352C32.4964 6.16914 16.506 6.16914 10.4775 10.1352C8.73353 11.2844 7.20663 14.3295 6.0235 17.4286H1.25461C0.875711 17.4286 0.519393 17.5992 0.282265 17.8916C0.0438837 18.1826 -0.051469 18.5678 0.0263187 18.9379L0.732682 22.3607C0.853127 22.9441 1.36753 23.3607 1.96097 23.3607H3.3737C2.00991 24.934 1.34871 26.9152 1.33993 28.8975C1.33115 31.3467 2.26083 33.5599 3.96087 35.1257C3.97969 35.1421 3.99851 35.1533 4.01608 35.1697V39.9587C4.01608 40.9964 4.8592 41.8407 5.89804 41.8407H10.2968C11.3357 41.8407 12.1788 40.9964 12.1788 39.9587V38.0341H36.8212V39.9587C36.8212 40.9964 37.6643 41.8407 38.7031 41.8407H43.1019C44.1382 41.8407 44.9839 40.9964 44.9839 39.9587V35.2638C46.788 33.6113 47.65 31.3379 47.6613 29.0682C47.6688 27.018 46.9775 24.9641 45.5334 23.3582H47.0402C47.6362 23.3582 48.1506 22.9416 48.2685 22.3569L48.9761 18.9354C49.0489 18.5678 48.9573 18.1851 48.7189 17.8916ZM12.5439 13.2781C17.3491 10.1151 31.6508 10.1151 36.4536 13.2781C37.387 13.8904 38.5877 16.3659 39.688 19.3972H9.31192C10.4097 16.3671 11.6104 13.8929 12.5439 13.2781ZM6.91555 29.3693C6.91555 27.3242 8.57419 25.668 10.618 25.668C12.6643 25.668 14.3204 27.3242 14.3204 29.3693C14.3204 31.4144 12.6643 33.0718 10.618 33.0718C8.57419 33.0718 6.91555 31.4144 6.91555 29.3693ZM38.4309 33.0718C36.3871 33.0718 34.7284 31.4144 34.7284 29.3693C34.7284 27.3242 36.3871 25.668 38.4309 25.668C40.4772 25.668 42.1333 27.3242 42.1333 29.3693C42.1333 31.4144 40.4747 33.0718 38.4309 33.0718Z" fill="#219653"/>
</g>
<defs>
<clipPath id="clip0">
<rect width="49" height="49" fill="white"/>
</clipPath>
</defs>
</svg>
