<svg width="48" height="48" viewBox="0 0 48 48" fill="none" xmlns="http://www.w3.org/2000/svg">
<g clip-path="url(#clip0)">
<path d="M46.6935 35.2272L39.9949 28.5286C37.6026 26.1363 33.5356 27.0933 32.5787 30.2033C31.861 32.3565 29.4686 33.5526 27.3155 33.0741C22.5309 31.8779 16.0716 25.6578 14.8754 20.6339C14.1577 18.4807 15.5931 16.0884 17.7462 15.3708C20.8562 14.4138 21.8132 10.3469 19.4208 7.95452L12.7223 1.25598C10.8084 -0.418659 7.93761 -0.418659 6.26297 1.25598L1.71753 5.80142C-2.82791 10.5861 2.196 23.2655 13.44 34.5095C24.684 45.7534 37.3634 51.0167 42.148 46.2319L46.6935 41.6865C48.3682 39.7726 48.3682 36.9018 46.6935 35.2272Z" fill="#219653"/>
</g>
<defs>
<clipPath id="clip0">
<rect width="48" height="48" fill="white"/>
</clipPath>
</defs>
</svg>
