<svg width="51" height="51" viewBox="0 0 51 51" fill="none" xmlns="http://www.w3.org/2000/svg">
<g clip-path="url(#clip0)">
<path d="M40.9063 0H10.0938C6.87013 0 4.25 2.62013 4.25 5.84375V45.1562C4.25 48.3799 6.87013 51 10.0938 51H40.9063C44.1299 51 46.75 48.3799 46.75 45.1562V5.84375C46.75 2.62013 44.1299 0 40.9063 0ZM20.7825 39.78C21.4051 40.4026 21.4051 41.412 20.7825 42.0346C20.4723 42.3449 20.0643 42.5 19.6563 42.5C19.2483 42.5 18.8403 42.3449 18.53 42.0325L17 40.5046L15.47 42.0346C15.1598 42.3449 14.7518 42.5 14.3438 42.5C13.9358 42.5 13.5278 42.3449 13.2175 42.0325C12.5949 41.4099 12.5949 40.4005 13.2175 39.7779L14.7454 38.25L13.2154 36.72C12.5928 36.0974 12.5928 35.088 13.2154 34.4654C13.838 33.8427 14.8474 33.8427 15.47 34.4654L17 35.9954L18.53 34.4654C19.1526 33.8427 20.162 33.8427 20.7846 34.4654C21.4073 35.088 21.4073 36.0974 20.7846 36.72L19.2546 38.25L20.7825 39.78ZM19.6563 27.0938H18.5938V28.1562C18.5938 29.036 17.8798 29.75 17 29.75C16.1203 29.75 15.4063 29.036 15.4063 28.1562V27.0938H14.3438C13.464 27.0938 12.75 26.3798 12.75 25.5C12.75 24.6202 13.464 23.9062 14.3438 23.9062H15.4063V22.8438C15.4063 21.964 16.1203 21.25 17 21.25C17.8798 21.25 18.5938 21.964 18.5938 22.8438V23.9062H19.6563C20.536 23.9062 21.25 24.6202 21.25 25.5C21.25 26.3798 20.536 27.0938 19.6563 27.0938ZM36.6563 42.5H31.3438C30.464 42.5 29.75 41.786 29.75 40.9062C29.75 40.0265 30.464 39.3125 31.3438 39.3125H36.6563C37.536 39.3125 38.25 40.0265 38.25 40.9062C38.25 41.786 37.536 42.5 36.6563 42.5ZM36.6563 37.1875H31.3438C30.464 37.1875 29.75 36.4735 29.75 35.5938C29.75 34.714 30.464 34 31.3438 34H36.6563C37.536 34 38.25 34.714 38.25 35.5938C38.25 36.4735 37.536 37.1875 36.6563 37.1875ZM36.6563 27.625H31.3438C30.464 27.625 29.75 26.911 29.75 26.0312C29.75 25.1515 30.464 24.4375 31.3438 24.4375H36.6563C37.536 24.4375 38.25 25.1515 38.25 26.0312C38.25 26.911 37.536 27.625 36.6563 27.625ZM40.375 13.2812C40.375 15.3319 38.7069 17 36.6563 17H14.3438C12.2931 17 10.625 15.3319 10.625 13.2812V10.0938C10.625 8.04313 12.2931 6.375 14.3438 6.375H36.6563C38.7069 6.375 40.375 8.04313 40.375 10.0938V13.2812Z" fill="#219653"/>
</g>
<defs>
<clipPath id="clip0">
<rect width="51" height="51" fill="white"/>
</clipPath>
</defs>
</svg>
